<?xml version="1.0" standalone="no"?>
<!DOCTYPE svg PUBLIC "-//W3C//DTD SVG 20010904//EN"
 "http://www.w3.org/TR/2001/REC-SVG-20010904/DTD/svg10.dtd">
<svg version="1.0" xmlns="http://www.w3.org/2000/svg"
 width="512.000000pt" height="512.000000pt" viewBox="0 0 512.000000 512.000000"
 preserveAspectRatio="xMidYMid meet">
<metadata>
Created by potrace 1.16, written by Peter Selinger 2001-2019
</metadata>
<g transform="translate(0.000000,512.000000) scale(0.100000,-0.100000)"
fill="#000000" stroke="none">
<path d="M2875 3996 c-197 -50 -348 -174 -426 -349 -49 -108 -69 -191 -69
-283 0 -113 45 -260 101 -332 13 -17 16 -33 12 -54 -4 -21 -1 -35 8 -42 17
-12 54 -95 63 -141 6 -28 2 -34 -80 -95 -59 -45 -93 -64 -109 -62 -13 2 -51
-2 -85 -8 l-63 -11 -32 31 c-20 19 -35 45 -38 67 -7 43 -33 73 -62 73 -32 0
-65 -40 -65 -79 0 -28 -3 -32 -17 -26 -116 48 -160 43 -203 -25 -28 -43 -31
-55 -25 -92 4 -24 11 -51 17 -61 9 -18 79 -57 138 -76 19 -6 57 -22 84 -36 27
-14 56 -25 63 -25 8 0 31 -9 51 -19 79 -42 177 -64 260 -59 42 3 85 9 95 13
14 6 17 2 17 -21 0 -16 7 -42 15 -58 14 -26 13 -30 -5 -53 -24 -31 -26 -80 -4
-111 12 -18 13 -31 5 -79 -17 -90 -15 -112 14 -125 l25 -11 0 -187 c0 -197 5
-227 48 -292 14 -22 27 -62 33 -100 17 -128 22 -148 35 -159 11 -9 4 -18 -38
-43 -96 -57 -122 -129 -69 -188 29 -33 30 -33 118 -33 75 1 105 6 202 39 62
21 122 47 132 57 21 21 25 77 10 141 -6 27 -5 42 6 58 13 18 12 27 -1 73 -8
28 -17 75 -21 102 l-6 50 26 -30 c26 -30 64 -111 91 -195 8 -25 23 -56 33 -69
19 -25 19 -25 -15 -69 -38 -50 -52 -103 -37 -142 l10 -27 -481 -7 c-499 -8
-671 -16 -606 -28 72 -14 312 -19 920 -19 658 0 1082 9 1058 22 -12 7 -434 29
-562 29 l-41 0 44 37 c24 20 57 46 74 58 52 34 55 60 15 152 -26 60 -33 85
-26 98 15 27 4 71 -45 181 -43 95 -46 106 -49 204 l-3 103 32 9 c20 5 43 24
63 51 30 40 31 46 27 112 -3 39 -8 77 -11 86 -5 12 3 18 34 28 46 14 100 57
129 104 51 83 79 244 52 295 -6 11 -27 33 -46 48 -23 18 -35 35 -35 51 0 85
-59 222 -139 322 -28 35 -51 67 -51 71 0 4 7 13 15 20 8 7 15 25 15 41 0 23
10 33 59 64 109 66 127 106 138 310 5 92 3 117 -11 146 -9 20 -20 69 -25 110
-14 125 -69 217 -155 261 -23 12 -67 44 -99 73 -69 63 -150 108 -233 129 -74
19 -227 20 -299 2z m258 -31 c149 -31 290 -142 351 -277 19 -40 39 -100 46
-133 6 -33 15 -77 20 -98 l8 -37 -35 31 c-48 42 -79 52 -118 39 -116 -38 -148
-263 -52 -369 21 -23 21 -23 1 -13 -11 6 -33 34 -48 63 -28 51 -29 52 -22 173
7 109 5 128 -13 176 -16 42 -18 56 -8 63 21 14 141 1 175 -19 17 -10 34 -16
37 -13 11 12 -42 168 -74 218 -37 57 -94 107 -158 140 -63 31 -62 26 3 -22 99
-73 161 -161 180 -255 l7 -33 -44 8 c-53 9 -74 9 -119 -1 -31 -7 -37 -4 -52
21 -24 42 -106 122 -164 160 -84 56 -147 75 -264 82 l-105 6 45 27 c117 69
266 92 403 63z m-263 -116 c194 -39 384 -230 397 -403 3 -35 -1 -96 -10 -145
l-16 -83 27 -30 c82 -91 90 -98 108 -91 11 4 15 3 11 -4 -4 -6 -1 -11 6 -10 6
0 29 -1 51 -1 l39 -2 -7 -42 c-4 -23 -8 -44 -10 -45 -2 -2 -16 2 -32 8 -16 6
-59 11 -95 11 -58 0 -79 -6 -175 -50 -162 -75 -266 -104 -404 -109 -90 -4
-123 -2 -153 10 -39 17 -53 43 -17 32 12 -4 65 -6 118 -6 151 0 285 34 424
108 78 41 148 100 148 126 0 24 -49 77 -72 77 -18 0 -20 4 -14 33 17 83 18
145 2 205 -23 91 -51 140 -120 207 -130 127 -316 184 -459 141 l-47 -14 20 26
c45 56 72 68 152 65 40 -2 98 -8 128 -14z m700 -161 c32 -44 45 -82 56 -165 6
-49 5 -53 -14 -53 -27 0 -30 5 -46 97 -8 44 -26 103 -40 132 -25 49 -26 52 -6
41 11 -6 34 -29 50 -52z m-758 41 c68 -14 163 -60 208 -100 l35 -31 -35 22
c-115 72 -238 107 -342 97 -69 -6 -97 -23 -145 -85 -61 -80 -78 -142 -78 -282
1 -119 2 -128 32 -193 18 -38 47 -86 64 -109 26 -32 29 -39 14 -37 -27 6 -102
120 -122 187 -27 86 -24 269 5 343 63 159 190 224 364 188z m-202 -154 c0 -8
-14 -34 -30 -57 -42 -60 -56 -144 -40 -249 11 -81 10 -96 -9 -85 -32 20 -42
212 -15 293 23 68 52 113 75 113 10 0 19 -7 19 -15z m409 -71 c12 -15 21 -34
21 -44 0 -32 -39 -70 -72 -70 -42 0 -68 25 -68 67 0 68 78 99 119 47z m-340 2
c22 -27 9 -70 -26 -86 -36 -16 -39 -29 -34 -131 3 -57 -12 -86 -30 -58 -15 23
-7 185 9 181 10 -2 10 2 2 17 -15 29 -12 49 10 71 23 23 53 26 69 6z m751 -64
c-67 -34 -98 -141 -66 -226 18 -47 56 -80 84 -74 13 3 9 8 -14 20 -39 21 -54
56 -54 124 0 81 39 144 91 144 29 0 83 -52 100 -97 23 -61 -2 -153 -42 -153
-35 0 -69 44 -69 90 0 54 24 100 53 101 12 0 16 3 9 6 -50 20 -97 -41 -89
-116 5 -49 41 -91 78 -91 30 0 23 -15 -16 -33 -64 -30 -115 -15 -145 43 -57
112 -7 280 84 280 l31 0 -35 -18z m215 -27 c29 -28 30 -41 14 -187 -16 -152
-37 -189 -145 -251 -7 -4 -7 13 1 58 9 46 21 74 43 99 46 53 55 94 47 207 -7
108 -2 117 40 74z m-421 -247 c23 -32 20 -55 -9 -74 -23 -15 -27 -15 -50 0
-27 18 -34 63 -13 84 19 19 55 14 72 -10z m-74 -87 l29 -28 -62 -37 c-34 -20
-105 -51 -157 -68 -87 -29 -106 -32 -231 -32 -101 -1 -140 2 -152 13 -28 23
-20 34 20 26 62 -11 190 -6 256 11 80 20 176 68 224 110 21 18 39 33 41 34 2
0 16 -13 32 -29z m-350 -38 c-19 -8 -73 -17 -120 -19 -57 -2 -77 -1 -60 5 14
5 48 10 75 11 28 1 64 6 80 10 50 13 62 9 25 -7z m628 -83 c19 -12 32 -28 32
-40 0 -20 0 -20 -30 2 -25 18 -44 22 -103 23 -68 0 -80 -4 -181 -53 -118 -57
-137 -77 -36 -37 69 27 80 29 80 17 0 -19 -168 -91 -249 -107 -114 -23 -270
-17 -309 12 -15 11 -28 28 -30 37 -3 14 1 15 25 9 49 -14 224 -7 308 12 86 19
168 51 216 86 83 59 214 77 277 39z m-32 -131 c23 -11 48 -26 54 -34 11 -13 8
-13 -20 -4 -43 16 -126 6 -158 -18 -37 -28 -38 -62 -3 -130 49 -94 36 -89 152
-57 119 34 109 46 -12 14 -45 -11 -84 -19 -86 -16 -7 6 85 33 144 42 26 4 42
9 35 11 -6 3 -10 9 -7 14 7 10 -18 60 -40 83 -21 21 -112 21 -163 1 l-37 -15
23 20 c44 37 90 43 156 23 55 -17 64 -24 101 -78 37 -54 61 -114 81 -199 6
-26 5 -28 -12 -21 -33 14 -165 18 -205 6 -21 -6 -59 -28 -85 -47 l-47 -36 -33
38 c-46 54 -81 121 -94 178 -8 39 -8 59 5 102 36 123 143 176 251 123z m-303
-111 c-24 -94 4 -217 73 -320 19 -28 33 -53 30 -55 -11 -11 -88 87 -108 137
-29 73 -32 222 -5 263 9 15 19 27 21 27 2 0 -3 -24 -11 -52z m-971 -7 c4 -26
18 -55 33 -71 14 -14 25 -36 25 -48 0 -31 -32 -92 -64 -121 -27 -25 -33 -41
-17 -41 21 0 74 56 97 102 35 70 42 53 8 -22 -41 -92 -85 -117 -149 -88 -26
12 -26 13 -20 87 4 42 15 93 25 114 14 30 16 45 8 67 -12 35 5 73 30 68 11 -2
19 -18 24 -47z m469 -22 c-6 -17 -16 -81 -22 -142 -6 -62 -13 -114 -15 -116
-2 -2 -4 30 -4 71 0 81 13 165 32 212 15 38 23 15 9 -25z m427 -51 c1 -171 51
-275 172 -357 74 -49 86 -78 31 -73 -90 9 -241 115 -241 168 0 14 -7 40 -14
59 -12 28 -21 35 -42 35 -35 0 -64 -26 -64 -57 0 -37 34 -96 81 -138 35 -32
133 -84 202 -108 14 -5 25 -27 14 -27 -17 0 -135 55 -171 79 -25 18 -46 28
-46 23 0 -15 43 -50 100 -81 l55 -31 -135 -1 c-184 -1 -259 1 -297 7 l-31 6
41 36 c47 43 76 102 77 153 0 23 6 39 15 43 11 4 15 21 15 61 l0 56 -72 -3
-73 -3 0 -55 0 -55 43 -3 c42 -3 42 -3 42 -43 0 -22 -7 -53 -14 -68 -17 -32
-81 -91 -99 -91 -6 0 5 14 26 31 21 17 44 43 52 58 12 25 12 31 -1 50 -21 29
-38 27 -73 -11 l-31 -33 1 35 c0 39 26 252 28 233 0 -7 5 -13 10 -13 5 0 12
30 16 67 12 114 5 108 136 106 85 -2 130 2 179 16 36 10 66 19 67 20 0 0 1
-41 1 -91z m422 88 c0 -2 -13 -6 -30 -8 -16 -3 -30 -1 -30 4 0 4 14 8 30 8 17
0 30 -2 30 -4z m-911 -58 c-5 -18 -9 -57 -9 -87 l0 -55 -30 47 c-16 26 -30 52
-30 56 0 7 68 69 77 71 1 0 -3 -15 -8 -32z m-566 -4 c52 -18 60 -25 51 -47 -5
-13 -16 -12 -80 11 -75 26 -98 52 -46 52 16 0 49 -7 75 -16z m1500 9 c-7 -2
-21 -2 -30 0 -10 3 -4 5 12 5 17 0 24 -2 18 -5z m-846 -45 c-3 -7 -5 -2 -5 12
0 14 2 19 5 13 2 -7 2 -19 0 -25z m863 23 c0 -4 -20 -11 -44 -14 -24 -4 -62
-13 -85 -20 -22 -8 -41 -11 -41 -7 0 5 21 15 48 24 82 26 122 32 122 17z
m-1552 -52 c56 -17 72 -26 72 -40 0 -24 4 -24 -96 7 -52 16 -84 32 -84 40 0
19 23 18 108 -7z m453 1 c26 -14 54 -73 69 -143 7 -34 16 -55 22 -51 14 9 1
88 -23 143 -42 96 -7 68 42 -34 20 -40 29 -76 29 -108 0 -43 -3 -49 -27 -58
-45 -18 -158 -23 -208 -9 -25 7 -45 15 -45 18 0 2 10 21 22 41 18 28 23 51 23
101 -1 36 -3 71 -5 79 -8 24 66 39 101 21z m-495 -60 c16 -5 48 -14 72 -20 35
-9 42 -15 42 -35 0 -31 -2 -31 -86 1 -75 28 -97 42 -88 55 7 12 24 11 60 -1z
m384 -20 c0 -35 -47 -128 -72 -141 -11 -6 -26 -8 -33 -5 -11 4 -6 18 20 57 20
28 38 63 41 78 9 35 11 38 29 38 10 0 15 -10 15 -27z m665 -119 c0 -42 -21
-52 -36 -17 -14 31 -5 59 18 54 13 -2 18 -13 18 -37z m653 2 c25 -18 27 -26
30 -104 2 -60 -2 -96 -14 -127 -12 -31 -19 -40 -25 -31 -4 8 -4 18 1 23 15 15
11 78 -6 106 -14 23 -14 21 -8 -39 4 -43 3 -62 -4 -57 -7 4 -9 -5 -5 -27 3
-18 0 -51 -6 -73 l-11 -41 -50 25 c-40 20 -66 25 -128 25 l-78 1 8 70 c5 38
14 76 20 83 15 18 110 17 155 -2 20 -8 38 -13 41 -10 13 13 -79 38 -140 39
-38 1 -68 4 -68 9 0 14 40 47 66 53 14 4 51 4 82 1 l57 -5 -40 15 c-45 16
-116 10 -152 -13 -32 -20 -35 -18 -19 14 17 32 40 55 81 77 43 23 175 16 213
-12z m118 -68 c35 -54 -11 -233 -78 -302 -18 -18 -36 -33 -40 -33 -15 0 -8 31
17 74 46 79 61 143 65 279 0 16 20 6 36 -18z m-704 -50 c30 -30 53 -55 51 -55
-12 0 -94 63 -103 80 -10 19 -13 30 -7 30 2 0 29 -25 59 -55z m-465 -2 c-3
-10 -5 -4 -5 12 0 17 2 24 5 18 2 -7 2 -21 0 -30z m99 -28 c-9 -14 -24 -25
-33 -25 -13 0 -10 7 12 30 33 35 45 32 21 -5z m-62 -147 c4 -39 3 -48 -9 -48
-26 0 -40 44 -25 80 16 38 26 29 34 -32z m236 -19 c46 -7 39 -7 -47 -6 -62 2
-107 7 -114 14 -13 13 46 10 161 -8z m437 -6 c-10 -9 -136 -32 -181 -33 -61 0
-33 14 52 26 94 14 137 16 129 7z m219 -64 c49 -24 61 -36 47 -50 -6 -6 -23
-3 -44 8 -21 11 -64 19 -111 21 -57 3 -78 8 -78 18 0 39 104 41 186 3z m-218
-6 c0 -16 3 -41 7 -58 5 -23 0 -39 -19 -68 -31 -45 -31 -50 -9 -72 20 -20 25
-125 7 -125 -18 0 -87 31 -118 53 l-28 20 11 -21 c17 -31 59 -61 105 -73 22
-6 57 -18 76 -26 26 -10 43 -11 61 -4 l26 9 6 -76 c4 -47 2 -78 -4 -80 -6 -3
-6 -9 -1 -15 24 -31 21 -60 -9 -88 -43 -40 -127 -79 -171 -79 -122 0 -186 98
-239 369 -12 65 -26 66 -31 3 l-2 -30 -31 15 c-53 27 -129 89 -158 129 -60 84
-58 82 -41 39 9 -22 26 -53 38 -70 38 -51 41 -59 20 -46 -11 6 -30 19 -44 29
l-25 17 22 -30 c32 -46 55 -64 145 -110 l83 -44 21 -88 c14 -55 19 -94 13
-104 -14 -27 -89 -51 -169 -56 -93 -5 -131 12 -169 77 l-26 45 36 -23 c44 -27
144 -31 190 -6 25 13 30 20 27 46 -2 26 -14 39 -68 76 -61 42 -67 44 -122 40
l-58 -4 -7 35 c-7 37 12 357 23 385 5 13 14 15 43 9 57 -13 388 -5 481 10 47
8 90 15 96 16 6 0 11 -11 12 -26z m-674 -50 c-7 -64 -10 -73 -26 -73 -7 0 -8
17 -4 48 9 64 15 82 27 82 7 0 8 -21 3 -57z m897 -24 c25 -33 41 -116 30 -159
-9 -35 -9 -35 -10 13 -1 62 -17 53 -23 -13 -8 -84 -28 -87 -28 -5 -1 79 -12
73 -36 -18 -13 -50 -29 -76 -39 -65 -3 3 -8 23 -11 44 -10 77 -15 89 -25 73
-5 -7 -9 -30 -9 -49 -1 -75 -21 -102 -42 -55 -11 25 -5 87 23 216 l11 52 71
-6 c59 -4 73 -8 88 -28z m-731 -397 c36 -27 39 -75 5 -90 -64 -29 -145 3 -145
58 0 59 79 77 140 32z m100 -79 c0 -13 -30 -33 -50 -33 -8 0 -7 8 4 25 9 13
16 32 16 42 1 17 2 16 15 -1 8 -11 15 -26 15 -33z m637 -241 c4 -18 -3 -32
-28 -59 -84 -88 -242 -113 -279 -44 -9 17 -7 18 29 9 79 -20 196 27 232 94 9
17 8 18 -9 9 -10 -5 -25 -17 -32 -26 -32 -39 -139 -68 -193 -54 -34 9 -42 17
-63 65 -13 30 -24 56 -24 58 0 3 17 0 37 -6 20 -5 55 -7 77 -4 45 8 146 59
172 88 17 18 19 17 46 -44 16 -34 31 -73 35 -86z m-511 71 c3 -16 10 -42 14
-60 8 -31 7 -32 -43 -53 -41 -18 -65 -21 -134 -18 -75 3 -87 6 -104 27 -10 13
-19 36 -19 52 l0 28 35 -15 c51 -21 67 -16 18 6 -24 11 -43 21 -43 23 0 2 19
1 43 -3 53 -7 150 5 185 25 37 20 41 19 48 -12z m32 -138 c-17 -39 -73 -60
-158 -60 -57 0 -83 5 -109 20 -38 22 -58 54 -25 40 11 -5 55 -10 99 -12 67 -3
89 1 135 20 30 13 58 22 62 20 4 -2 2 -15 -4 -28z m492 -86 c13 -30 12 -32
-46 -91 -74 -75 -139 -108 -216 -108 -31 0 -63 3 -72 6 -36 14 -4 103 49 138
13 9 44 16 67 16 58 0 108 15 149 44 45 32 54 32 69 -5z m-500 -30 c0 -36 -20
-46 -163 -84 -107 -29 -218 -33 -237 -10 -19 23 11 60 73 91 49 25 55 26 108
15 73 -15 147 -13 184 4 17 7 31 14 33 14 1 1 2 -13 2 -30z"/>
<path d="M3482 3318 c-15 -15 -16 -72 -2 -99 7 -12 21 -19 40 -19 34 0 50 23
50 72 0 41 -15 58 -50 58 -14 0 -31 -5 -38 -12z m60 -52 c1 -10 -3 -21 -9 -23
-9 -3 -13 6 -13 28 0 34 15 31 22 -5z"/>
<path d="M3367 2545 c-34 -12 -58 -25 -46 -25 15 0 142 30 147 34 11 11 -64 5
-101 -9z"/>
<path d="M2880 2671 l-45 -6 0 -65 0 -65 62 -3 c58 -3 63 -1 68 21 4 13 5 46
3 73 -3 55 -6 56 -88 45z"/>
<path d="M2863 2503 c-28 -11 -11 -20 18 -10 25 10 35 9 60 -5 29 -17 39 -12
17 10 -12 12 -71 15 -95 5z"/>
<path d="M3015 1993 c-70 -9 -158 -12 -240 -9 -98 3 -124 2 -105 -6 56 -24
466 -5 495 23 11 11 -9 10 -150 -8z"/>
<path d="M3111 1524 c-40 -34 -40 -51 0 -22 38 28 103 31 142 5 21 -14 27 -25
27 -55 -1 -40 -10 -56 -54 -90 -34 -26 -18 -29 31 -5 42 19 67 70 58 114 -17
76 -139 108 -204 53z"/>
<path d="M3099 1390 c23 -20 95 -28 105 -12 3 5 -8 7 -23 4 -15 -2 -45 3 -67
12 l-39 16 24 -20z"/>
<path d="M3390 1950 c0 -5 5 -10 11 -10 5 0 7 5 4 10 -3 6 -8 10 -11 10 -2 0
-4 -4 -4 -10z"/>
<path d="M3435 1940 c-16 -7 -17 -9 -3 -9 9 -1 20 4 23 9 7 11 7 11 -20 0z"/>
<path d="M3208 1223 c6 -2 18 -2 25 0 6 3 1 5 -13 5 -14 0 -19 -2 -12 -5z"/>
</g>
</svg>